<?xml version="1.0" encoding="UTF-8"?>
<svg id="Layer_2" data-name="Layer 2" xmlns="http://www.w3.org/2000/svg" width="164.65" height="160.94" viewBox="0 0 164.65 160.94">
  <defs>
    <style>
      .cls-1 {
        fill: #4554af;
      }

      .cls-2 {
        fill: #e59b1a;
      }

      .cls-3 {
        fill: #0a69c9;
      }

      .cls-4 {
        fill: #edeaf5;
      }

      .cls-5 {
        fill: #f354a3;
      }

      .cls-6 {
        fill: #3b2e8a;
      }

      .cls-7 {
        fill: #4aae2a;
      }
    </style>
  </defs>
  <circle class="cls-4" cx="80.43" cy="81.96" r="78.31"/>
  <path class="cls-6" d="M122.13,122.33c-10.44,0-18.72-11.33-23.78-18.26l-.13-.18c-2.03-2.77-4.94-5.98-5.87-6.23-1.59-.2-9.14-.24-11.91-.24s-10.33.04-11.94.25c-.9.24-3.81,3.46-5.84,6.23l-.1.14c-5.41,7.4-14.4,19.71-25.74,18.18-4.17-.56-8.17-3.43-10.69-7.68-4.08-6.86-3.51-15.2-3-22.55l.04-.65c.54-7.91,1.85-15.8,3.88-23.46,2.63-9.93,6.53-19.54,17.12-22.57,7.67-2.19,15.45.65,22.31,3.17l.52.19c3.05,1.09,6.33,1.07,9.8,1.05,1.24,0,2.51-.02,3.77.03h.38c4.37.18,8.89.36,12.92-1.08l.63,1.37-.51-1.41.41-.15c6.86-2.51,14.65-5.36,22.31-3.17,10.6,3.03,14.49,12.64,17.12,22.57,2.03,7.66,3.33,15.55,3.88,23.46l.05.65c.51,7.35,1.09,15.68-3,22.55-2.53,4.25-6.52,7.12-10.69,7.68-.65.09-1.29.13-1.93.13ZM49.97,47.5c-1.68,0-3.34.2-4.99.68-8.65,2.47-12.27,9.97-15.05,20.45-1.98,7.48-3.25,15.18-3.78,22.9l-.04.65c-.5,7.25-1.02,14.75,2.58,20.81,2.06,3.46,5.24,5.8,8.51,6.24,9.57,1.27,17.59-9.68,22.89-16.93l.03.02c1.21-2.27,5.9-7.38,7.99-7.64,2.1-.26,11.28-.27,12.31-.27s10.22,0,12.32.27c2.08.26,6.71,5.3,7.97,7.59l.03-.02c5.33,7.3,13.36,18.27,22.92,16.98,3.27-.44,6.45-2.77,8.51-6.24,3.6-6.06,3.08-13.56,2.58-20.81l-.04-.66c-.53-7.72-1.8-15.43-3.79-22.9-2.78-10.49-6.4-17.98-15.05-20.45-6.73-1.92-13.71.63-20.46,3.1l-.54.2c-4.57,1.64-9.39,1.45-14.05,1.27h-.38c-1.19-.06-2.44-.05-3.64-.05-3.58.02-7.28.04-10.83-1.23l-.54-.2c-5.09-1.86-10.32-3.77-15.46-3.77Z"/>
  <path class="cls-7" d="M52.59,84.2c-1.1,0-2-.9-2-2v-18c0-1.1.9-2,2-2s2,.9,2,2v18c0,1.1-.9,2-2,2Z"/>
  <path class="cls-7" d="M61.59,75.2h-18c-1.1,0-2-.9-2-2s.9-2,2-2h18c1.1,0,2,.9,2,2s-.9,2-2,2Z"/>
  <circle class="cls-1" cx="100.4" cy="72.2" r="4.04"/>
  <circle class="cls-2" cx="108.4" cy="64.12" r="4.04"/>
  <circle class="cls-5" cx="116.4" cy="72.2" r="4.04"/>
  <circle class="cls-7" cx="108.4" cy="79.68" r="4.04"/>
  <path class="cls-5" d="M164.65,19.52h-14.24V5.28h14.24v14.24ZM153.4,16.52h8.24v-8.24h-8.24v8.24Z"/>
  <path class="cls-3" d="M163.56,154.79h-19.05l9.52-16.5,9.52,16.5ZM149.71,151.79h8.66l-4.33-7.5-4.33,7.5Z"/>
  <path class="cls-6" d="M10.07,20.14L0,10.07,10.07,0l10.07,10.07-10.07,10.07ZM4.24,10.07l5.83,5.83,5.83-5.83-5.83-5.83-5.83,5.83Z"/>
  <path class="cls-7" d="M11.71,160.94c-4.75,0-8.61-3.86-8.61-8.61s3.86-8.61,8.61-8.61,8.61,3.86,8.61,8.61-3.86,8.61-8.61,8.61ZM11.71,146.73c-3.09,0-5.61,2.51-5.61,5.61s2.51,5.61,5.61,5.61,5.61-2.51,5.61-5.61-2.51-5.61-5.61-5.61Z"/>
</svg>